<?xml version="1.0" encoding="UTF-8" standalone="no"?>
<!-- Created with Inkscape (http://www.inkscape.org/) -->

<svg
   width="68.262497mm"
   height="55.940182mm"
   viewBox="0 0 68.262496 55.940182"
   version="1.1"
   id="svg1"
   inkscape:version="1.4 (1:1.4+202410161351+e7c3feb100)"
   sodipodi:docname="logo-center.svg"
   xmlns:inkscape="http://www.inkscape.org/namespaces/inkscape"
   xmlns:sodipodi="http://sodipodi.sourceforge.net/DTD/sodipodi-0.dtd"
   xmlns="http://www.w3.org/2000/svg"
   xmlns:svg="http://www.w3.org/2000/svg">
  <sodipodi:namedview
     id="namedview1"
     pagecolor="#ffffff"
     bordercolor="#000000"
     borderopacity="0.25"
     inkscape:showpageshadow="2"
     inkscape:pageopacity="0.0"
     inkscape:pagecheckerboard="0"
     inkscape:deskcolor="#d1d1d1"
     inkscape:document-units="mm"
     inkscape:zoom="0.7180275"
     inkscape:cx="418.50765"
     inkscape:cy="421.98941"
     inkscape:window-width="1920"
     inkscape:window-height="1008"
     inkscape:window-x="0"
     inkscape:window-y="0"
     inkscape:window-maximized="1"
     inkscape:current-layer="layer1" />
  <defs
     id="defs1">
    <clipPath
       clipPathUnits="userSpaceOnUse"
       id="clipPath182">
      <path
         d="M 0,800 H 800 V 0 H 0 Z"
         transform="translate(0,2.5000001e-5)"
         id="path182" />
    </clipPath>
    <clipPath
       clipPathUnits="userSpaceOnUse"
       id="clipPath186">
      <path
         d="M 0,800 H 800 V 0 H 0 Z"
         transform="translate(0,2.5000001e-5)"
         id="path186" />
    </clipPath>
  </defs>
  <g
     inkscape:label="Capa 1"
     inkscape:groupmode="layer"
     id="layer1"
     transform="translate(5.7839489,-36.691826)">
    <g
       id="g1"
       transform="matrix(0.3033889,0,0,0.3033889,-4.029163,25.559933)"
       style="stroke-width:3.2961">
      <path
         id="path181"
         d="m 461.14,728.861 h -5.938 v 9.024 h 5.938 z m -13.738,2.051 h -8.601 v 13.326 h 8.601 z m -84.052,0 h -8.609 v 13.326 h 8.609 z m -16.609,-2.051 h -5.944 v 9.024 h 5.944 z m 118.027,10.269 v 3.469 H 454.31 v 6.151 h -20.908 v -26.344 h -64.311 v 26.344 h -20.908 v -6.151 h -10.458 v -3.469 h -7.652 v -46.335 h 7.652 v -3.704 h 10.458 v -6.151 h 20.908 v 26.345 h 64.311 V 682.94 h 20.916 v 6.151 h 10.45 v 3.712 h 7.652 v 46.327 z"
         style="fill:#36ae7c;fill-opacity:1;fill-rule:nonzero;stroke:none;stroke-width:0.964531"
         transform="matrix(1.205549,0,0,-1.205549,-376.02613,939.34664)"
         clip-path="url(#clipPath182)" />
      <path
         id="path183"
         d="M -3.6916103,173.7736 H 13.049508 v -5.21306 L 7.5821557,168.37703 V 156.35451 H 22.67035 v -6.25852 H 7.5821557 V 139.24605 H 18.191929 c 1.667046,0 1.780067,0.73465 1.780067,1.90723 v 2.44405 l 6.258494,-0.42381 V 132.98756 H -3.3949333 v 5.21306 l 3.50362495,0.18351 v 28.52349 c 0,1.2291 -0.734631,1.59639 -1.78006695,1.70944 l -2.020235,0.18351 z M 33.28013,166.59682 c 0,1.5399 -0.60749,1.90719 -1.78007,2.02024 l -2.02024,0.18351 v 4.97289 h 14.8339 v -5.21306 l -3.48949,-0.18351 v -28.26921 c 0,-1.46923 0.73463,-1.83656 1.78006,-1.96372 l 2.02024,-0.1835 v -4.9729 h -14.8339 v 5.21306 l 3.4895,0.18351 z m 26.42554,0.31097 c 0,1.2291 -0.60749,1.59639 -1.78007,1.70944 l -3.24933,0.18351 v 4.97289 h 17.30622 v -5.21306 l -4.84575,-0.18351 v -29.31463 h 4.16763 c 1.65292,0 1.78006,0.73462 1.78006,1.9072 v 2.88202 l 6.24437,-0.43793 V 132.98759 H 47.25931 v 10.42613 l 6.2585,0.43793 v -2.88202 c 0,-1.04542 0.12716,-1.9072 1.41275,-1.9072 h 4.77511 z m 22.51221,6.86598 h 15.01755 v -5.21306 l -3.98396,-0.18351 v -23.1833 h 0.12713 l 17.73003,28.58001 h 7.16267 v -33.73655 c 0,-1.28559 0.55097,-1.83657 1.48338,-1.89309 l 2.20389,-0.18351 v -4.97289 h -14.96106 v 5.21306 l 4.04049,0.18351 v 22.75945 h -0.11312 L 93.56214,132.98773 H 82.52855 v 5.21306 l 3.4895,0.18351 v 28.52349 c 0,1.2291 -0.55098,1.65292 -1.59641,1.70944 l -2.2039,0.18351 z m 72.49186,0 v -10.92058 l -6.25848,-0.42384 v 3.06569 c 0,1.22911 -0.12713,1.96372 -1.72355,1.96372 h -9.87516 v -11.47155 h 14.16992 v -6.25848 h -14.16992 v -10.48265 h 9.08402 c 1.65291,0 1.78007,0.73465 1.78007,1.90723 v 2.44406 l 6.24437,-0.42382 v -10.18596 h -28.08556 v 5.21307 l 3.50363,0.18351 v 28.52348 c 0,1.22911 -0.73462,1.5964 -1.78004,1.70944 l -2.02024,0.18351 v 4.9729 z m 17.22499,-5.52387 c -1.65291,0 -3.24934,-0.18351 -4.40777,-0.55097 -1.11609,-0.36732 -1.29974,-0.86177 -1.29974,-2.02024 v -3.74379 l -6.24437,0.43796 v 9.67736 c 3.67316,1.72355 7.47347,2.51469 12.38985,2.51469 8.46237,0 14.8339,-4.40781 14.8339,-12.50286 0,-7.91143 -5.8912,-10.42612 -11.47155,-12.2062 -4.59146,-1.41275 -8.1516,-2.45817 -8.1516,-6.25848 0,-3.80032 2.82553,-5.26955 6.44216,-5.26955 1.2291,0 2.81138,0.12712 3.98396,0.49445 1.10195,0.36732 1.28563,0.84766 1.28563,2.02024 v 3.56011 l 6.25848,-0.43793 v -9.19702 c -3.6873,-1.70944 -7.48758,-2.51469 -11.52807,-2.51469 -8.46237,0 -14.22641,4.53493 -14.22641,12.02252 0,7.85488 5.63688,10.29897 11.71172,11.95188 4.29477,1.17258 7.78428,2.27453 7.78428,6.14548 0,4.59142 -3.30587,5.87704 -7.36047,5.87704 z m 32.00945,0 c -1.65292,0 -3.24934,-0.18351 -4.40778,-0.55097 -1.11609,-0.36732 -1.29973,-0.86177 -1.29973,-2.02024 v -3.74379 l -6.24438,0.43796 v 9.67736 c 3.67316,1.72355 7.47348,2.51469 12.38985,2.51469 8.46237,0 14.8339,-4.40781 14.8339,-12.50286 0,-7.91143 -5.89119,-10.42612 -11.47155,-12.2062 -4.59145,-1.41275 -8.1516,-2.45817 -8.1516,-6.25848 0,-3.80032 2.82553,-5.26955 6.44217,-5.26955 1.2291,0 2.81138,0.12712 3.98396,0.49445 1.10194,0.36732 1.28559,0.84766 1.28559,2.02024 v 3.56011 l 6.25852,-0.43793 v -9.19702 c -3.68727,-1.70944 -7.48759,-2.51469 -11.52807,-2.51469 -8.46238,0 -14.22641,4.53493 -14.22641,12.02252 0,7.85488 5.63688,10.29897 11.71171,11.95188 4.29477,1.17258 7.78425,2.27453 7.78425,6.14548 0,4.59142 -3.30583,5.87704 -7.36043,5.87704 z m 0,0"
         style="fill:#ffffff;fill-opacity:1;fill-rule:nonzero;stroke:none;stroke-width:1.16279"
         aria-label="FITNESS" />
      <path
         id="path184"
         d="m 8.4580617,199.57397 c 0.663996,0.21188 0.777017,0.5086 0.777017,1.21496 v 2.88202 l 3.7579203,-0.26826 v -6.2726 c -2.218022,-1.03131 -4.7609743,-1.51165 -6.9366153,-1.51165 -5.67926605,0 -11.584573,3.22109 -11.584573,12.84193 0,8.40588 4.096983,12.61586 11.584573,12.61586 2.359297,0 5.2836963,-0.43796 7.3039313,-1.51164 v -6.38564 L 9.6023937,212.9247 v 2.95265 c 0,0.69224 -0.11301,0.98894 -0.777016,1.21496 -0.692247,0.22588 -1.652919,0.32498 -2.684228,0.32498 -5.128294,0.11311 -7.04963505,-3.46125 -7.04963505,-9.25355 0,-5.56624 2.31691205,-8.88622 6.96486905,-8.88622 0.748759,0 1.695301,0.0707 2.401678,0.29662 z M 52.42999,220.59573 v -6.56929 l -3.75792,-0.25425 v 1.85071 c 0,0.73465 -0.0847,1.17261 -1.03131,1.17261 h -5.94769 v -6.89424 h 8.5189 v -3.77205 h -8.5189 v -6.3009 h 5.46735 c 0.98893,0 1.05957,0.43797 1.05957,1.14436 v 1.46927 l 3.77205,-0.25425 v -6.11735 H 35.09552 v 3.1363 l 2.105,0.0988 v 17.16495 c 0,0.73461 -0.45209,0.94656 -1.0737,1.0313 l -1.21496,0.11312 v 2.98091 z m 21.11006,0 h 9.02749 v -3.1363 l -2.38755,-0.11312 v -13.94379 h 0.0706 l 10.65214,17.19321 h 4.32303 v -20.28714 c 0,-0.77699 0.32498,-1.10194 0.87592,-1.14432 l 1.32796,-0.11311 v -2.98091 h -8.99921 v 3.1363 l 2.44407,0.0988 v 13.68958 H 90.7898 L 80.3637,196.07015 h -6.63994 v 3.1363 l 2.09088,0.0988 v 17.16495 c 0,0.73462 -0.32492,0.98893 -0.94655,1.03131 l -1.32798,0.11311 z m 51.30409,-4.12524 c 0,0.73462 -0.36729,0.94656 -1.07368,1.03131 l -1.94961,0.11311 v 2.98092 h 10.39787 v -3.1363 l -2.91024,-0.11311 v -17.63117 h 2.51469 c 0.98893,0 1.05957,0.45207 1.05957,1.14431 v 1.7377 l 3.77205,-0.25424 v -6.27264 h -19.2982 v 6.27264 l 3.75791,0.25424 v -1.7377 c 0,-0.6216 0.0848,-1.14431 0.86177,-1.14431 h 2.86787 z m 49.58058,4.12524 v -6.56929 l -3.75791,-0.25425 v 1.85071 c 0,0.73465 -0.0847,1.17261 -1.03134,1.17261 h -5.94768 v -6.89424 h 8.51889 v -3.77205 h -8.51889 v -6.3009 h 5.46734 c 0.98894,0 1.05957,0.43797 1.05957,1.14436 v 1.46927 l 3.77206,-0.25425 v -6.11722 h -16.89652 v 3.1363 l 2.10499,0.0988 v 17.16495 c 0,0.73462 -0.45208,0.94656 -1.07368,1.03131 l -1.21496,0.11311 v 2.98092 z m 21.11005,0 h 9.18292 v -3.1363 l -2.40169,-0.11312 v -6.4139 h 3.36232 c 1.28563,0 1.80834,0.55097 2.31694,1.69529 l 1.73766,3.68731 c 0.32499,0.73461 0.14148,1.07368 -0.70636,1.18669 l -1.07368,0.11311 v 2.98092 h 9.11224 v -3.1363 l -2.09087,-0.0707 -2.65597,-5.7923 c -0.56512,-1.25736 -1.11609,-1.87897 -2.10502,-2.24626 2.02024,-0.8194 4.42192,-2.81138 4.42192,-6.49869 0,-5.01527 -3.43299,-6.78119 -8.85796,-6.78119 h -10.0588 v 3.1363 l 2.09088,0.0988 v 17.16494 c 0,0.73462 -0.43793,0.94656 -1.05957,1.03131 l -1.21496,0.11311 z m 6.78123,-13.16684 v -7.78428 h 2.69834 c 3.1363,0 5.04353,0.4097 5.04353,3.72968 0,2.61359 -1.39863,4.0546 -4.53493,4.0546 z m 0,0"
         style="fill:#36ae7c;fill-opacity:1;fill-rule:nonzero;stroke:none;stroke-width:1.16279"
         aria-label="CENTER" />
      <path
         id="path185"
         d="M 493.4,623.038 H 307.115 v 3.428 H 493.4 Z"
         style="fill:#ffffff;fill-opacity:1;fill-rule:nonzero;stroke:none;stroke-width:0.964531"
         transform="matrix(1.205549,0,0,-1.205549,-376.02613,939.34664)"
         clip-path="url(#clipPath186)" />
    </g>
  </g>
</svg>
